# xmcd
#
# Track frame offsets:
#	150
#	15983
#	35360
#	47531
#	60538
#	74113
#	85363
#	109438
#	122263
#	145151
#	158426
#	169451
#
# Disc length: 2415 seconds
#
# Revision: 0
# Processed by: cddbd v1.5.2PL0 Copyright (c) Steve Scherf et al.
# Submitted via: audiograbber 1.83.01
#
DISCID=9c096d0c
DTITLE=Sampler - Just Blues (LP)
DYEAR=1900
DGENRE=Blues
TTITLE0=B.B. King - Blind Love
TTITLE1=John Lee Hooker - One Bourbon, One Scotch And One Beer
TTITLE2=Otis Spann - Chicago Blues
TTITLE3=Dirty blues Band - Don´t Start Me Talkin´
TTITLE4=Jimmy Reed - Give Up And Let me Go 
TTITLE5=B.B. King - Paying The Cost To Be The Boss
TTITLE6=John Lee Hooker - Heartaches And Misery
TTITLE7=Dirty Blues Band - Hound Dog
TTITLE8=B.B. King - Don´t Answer The Door
TTITLE9=Otis Spann - Heart Loaded With Trouble
TTITLE10=Jimmy Reed - When I `Woke Up This Mornin`
TTITLE11=John Lee Hooker - Boom Boom Boom
EXTD=
EXTT0=
EXTT1=
EXTT2=
EXTT3=
EXTT4=
EXTT5=
EXTT6=
EXTT7=
EXTT8=
EXTT9=
EXTT10=
EXTT11=
PLAYORDER=
